WalkerModelTerrain_states
version=1
nRows=18
nColumns=13
inDegrees=yes

# SIMM Motion File Header:
name WalkerModelTerrain_states
datacolumns 13
datarows 18
otherdata 1
range 0.89976394 0.91153655
endheader
time	Pelvis_tx	Pelvis_ty	LHip_rz	RHip_rz	LKnee_rz	RKnee_rz	Pelvis_tx_u	Pelvis_ty_u	LHip_rz_u	RHip_rz_u	LKnee_rz_u	RKnee_rz_u
      0.89976394	     -0.05024790	      0.36247386	    105.75185276	     51.16319459	   -104.24053371	   -141.26456428	      0.35690867	     -0.03827957	      5.43780635	    -69.89815440	    -44.36420725	     11.60298501
      0.90015428	     -0.05010907	      0.36245933	    105.75391359	     51.13738206	   -104.25774404	   -141.25967161	      0.35428595	     -0.03604728	      5.10327586	    -62.36531083	    -43.78643559	     13.37442072
      0.90048221	     -0.04999335	      0.36244791	    105.75552867	     51.11792549	   -104.27200289	   -141.25511878	      0.35136568	     -0.03349331	      4.73294650	    -56.39378698	    -43.15428396	     14.28630194
      0.90081014	     -0.04987869	      0.36243743	    105.75700877	     51.10032080	   -104.28603293	   -141.25037657	      0.34782275	     -0.03028845	      4.28118518	    -51.09512669	    -42.39296642	     14.52105057
      0.90113807	     -0.04976529	      0.36242811	    105.75832880	     51.08433721	   -104.29979428	   -141.24566807	      0.34372252	     -0.02648459	      3.75893112	    -46.49695099	    -41.51871946	     14.09062730
      0.90157848	     -0.04961525	      0.36241771	    105.75981405	     51.06504965	   -104.31779504	   -141.23975279	      0.33747001	     -0.02057712	      2.97176135	    -41.24696877	    -40.20079567	     12.61848273
      0.90214641	     -0.04942613	      0.36240844	    105.76118975	     51.04327081	   -104.34010042	   -141.23339500	      0.32839267	     -0.01189357	      1.85860304	    -35.62711691	    -38.32045891	      9.60168098
      0.90287614	     -0.04919112	      0.36240422	    105.76199703	     51.01952610	   -104.36712217	   -141.22813146	      0.31550086	      0.00051795	      0.34474614	    -29.62876658	    -35.71277636	      4.71332347
      0.90360586	     -0.04896588	      0.36240941	    105.76168850	     50.99983487	   -104.39219613	   -141.22655894	      0.30172452	      0.01380625	     -1.18818320	    -24.44127266	    -32.99964509	     -0.36328641
      0.90453110	     -0.04869503	      0.36243021	    105.75970961	     50.97999857	   -104.42112950	   -141.22957846	      0.28370819	      0.03118944	     -3.07218513	    -18.53805627	    -29.55228913	     -5.92923727
      0.90545635	     -0.04844084	      0.36246709	    105.75604503	     50.96536796	   -104.44692141	   -141.23700378	      0.26582495	      0.04846438	     -4.82291818	    -13.17096499	    -26.22944271	     -9.81419191
      0.90638159	     -0.04820288	      0.36251967	    105.75083793	     50.95546923	   -104.46973649	   -141.24717175	      0.24872556	      0.06504045	     -6.40281720	     -8.31555316	    -23.13076442	    -11.87874693
      0.90704775	     -0.04804108	      0.36256679	    105.74622585	     50.95099358	   -104.48445139	   -141.25530203	      0.23717449	      0.07630046	     -7.42853983	     -5.17675998	    -21.07321908	    -12.42607792
      0.90746513	     -0.04794352	      0.36260004	    105.74299957	     50.94920965	   -104.49299257	   -141.26051496	      0.23032919	      0.08301301	     -8.02523087	     -3.39998763	    -19.86415327	    -12.54163954
      0.90780442	     -0.04786629	      0.36262910	    105.74019797	     50.94828231	   -104.49957211	   -141.26478249	      0.22500663	      0.08826096	     -8.48572336	     -2.07999972	    -18.92771988	    -12.60875195
      0.90814370	     -0.04779082	      0.36265991	    105.73724409	     50.94779403	   -104.50584144	   -141.26906465	      0.21991907	      0.09329454	     -8.92275231	     -0.80285965	    -18.03600974	    -12.62345621
      0.90984013	     -0.04743703	      0.36283743	    105.72045239	     50.95154509	   -104.53306672	   -141.28999709	      0.19822165	      0.11504127	    -10.79351994	      5.06259730	    -14.24368049	    -11.81840487
      0.91153655	     -0.04711474	      0.36304702	    105.70084604	     50.96430169	   -104.55473519	   -141.30843762	      0.18275822	      0.13114481	    -12.26904834	      9.75338930	    -11.45430013	     -9.73736299
